<?xml version="1.0" standalone="no"?>
<!DOCTYPE svg PUBLIC "-//W3C//DTD SVG 20010904//EN"
 "http://www.w3.org/TR/2001/REC-SVG-20010904/DTD/svg10.dtd">
<svg version="1.0" xmlns="http://www.w3.org/2000/svg"
 width="339.000000pt" height="339.000000pt" viewBox="0 0 339.000000 339.000000"
 preserveAspectRatio="xMidYMid meet">
<metadata>
Created by potrace 1.14, written by Peter Selinger 2001-2017
</metadata>
<g transform="translate(0.000000,339.000000) scale(0.100000,-0.100000)"
fill="#000000" stroke="none">
<path d="M1613 2978 c-13 -6 -23 -15 -23 -19 0 -5 -15 -15 -33 -23 -49 -20
-70 -59 -75 -143 -3 -44 -10 -77 -18 -84 -23 -19 -17 -67 11 -85 14 -9 34 -36
44 -59 10 -23 35 -61 56 -84 34 -37 36 -44 28 -77 -4 -21 -15 -40 -23 -44 -71
-36 -100 -41 -285 -45 -137 -3 -205 -8 -245 -20 -175 -53 -207 -131 -160 -391
70 -386 231 -766 394 -929 l71 -71 -45 -89 c-57 -113 -170 -368 -170 -383 0
-36 34 1 90 98 88 155 106 186 145 262 19 36 39 69 44 72 10 6 161 -30 173
-42 4 -4 -2 -57 -13 -117 -10 -61 -21 -121 -24 -135 -2 -14 -11 -65 -19 -115
-20 -112 -20 -135 -1 -135 17 0 35 58 97 314 l43 178 79 -6 c44 -4 81 -8 82
-9 1 -1 18 -69 38 -152 27 -113 41 -153 57 -165 18 -15 19 -18 5 -29 -12 -10
-16 -32 -16 -90 0 -42 4 -81 8 -86 15 -22 110 -44 202 -46 106 -3 110 -2 110
29 0 28 -23 71 -47 85 -7 4 -25 31 -40 60 -14 28 -33 57 -42 63 -13 11 -14 17
-3 47 9 25 10 47 3 78 -5 24 -12 62 -16 84 -3 22 -10 58 -16 79 -11 41 -3 55
31 56 8 1 33 3 55 6 l40 4 113 -231 c71 -145 117 -229 125 -226 22 8 9 54 -79
267 -47 116 -85 212 -83 214 2 1 25 10 52 20 198 74 359 340 344 571 -7 123
-58 192 -195 267 -53 30 -71 45 -68 57 7 22 14 80 22 176 3 44 8 88 9 97 5 23
-6 25 -125 26 -58 1 -108 1 -112 2 -3 0 -21 25 -38 56 -56 97 -126 155 -220
182 -39 11 -171 59 -175 64 -11 11 -11 69 -1 75 23 15 73 88 90 133 10 24 26
50 37 58 24 17 24 52 0 83 -14 19 -18 39 -16 99 l3 75 -62 43 c-87 60 -158 76
-213 50z"/>
</g>
</svg>
